<svg xmlns="http://www.w3.org/2000/svg" width="50" height="50" viewBox="0 0 64 64"><g fill="none" fill-rule="evenodd"><path fill="#D3D873" d="m39 17 5.116 1.847a10 10 0 0 1 4.607 3.737L55 32l-8 5-4-6v26H19V31l-4 6-8-5 6.277-9.416a10 10 0 0 1 4.607-3.737L23 17c0 3.313 3.582 6 8 6s8-2.687 8-6"/><path stroke="#414547" stroke-linecap="round" stroke-linejoin="round" stroke-width="2" d="m39 17 5.116 1.847a10 10 0 0 1 4.607 3.737L55 32l-8 5-4-6v26H19V31l-4 6-8-5 6.277-9.416a10 10 0 0 1 4.607-3.737L23 17c0 3.313 3.582 6 8 6s8-2.687 8-6Zm-8 0v-4m-4-4a4 4 0 1 1 4 4m-4 4h8"/></g></svg>